:SAMPLES-PER-SECOND 30
:FULLY-SPECIFIED
:DEGREES
137
root  5.87057 39.6524 -14.032 2.07248 67.1835 9.76358
RightUpLeg  -22.7754 5.81094 -6.62018
RightLeg  45.8033 -5.15501 -5.99584
RightFoot  5.70406 -0.575264 4.12116
RightToes  0.00048216 0.542163 -0.142577
Spine  20.2057 -7.41343 -12.3016
Spine1  8.0989 -13.9881 14.7498
HEad  10.1267 18.8851 -8.04749
LeftShoulder1  9.10338 -16.1858 -39.9774
LeftArm  40.722 -37.8314 -64.3129
LeftForeArm  -3.90359 -23.4314 -5.23486
LeftHand  -0.25398 0.0180481 5.50724
RightShoulder  4.1384 7.9771 30.0844
RightArm  -14.7687 -23.2409 25.6842
RightForeArm  -23.43 72.7889 45.5669
RightHand  -1.44197 2.54855 -21.1373
LeftUpLeg  2.48896 14.1464 -7.98366
LeftLeg  14.9208 17.8944 -0.0959147
LeftFoot  -11.553 0.083495 8.03177
LeftToes  1.06248e-005 4.65856e-005 -8.18499e-006
138
root  7.40594 39.439 -14.006 2.87758 67.8237 10.7063
RightUpLeg  -22.6745 1.03715 -4.29432
RightLeg  35.1245 -4.86617 -3.91762
RightFoot  3.2696 -0.778293 6.22092
RightToes  0.00048216 0.542163 -0.142577
Spine  19.925 -7.45477 -13.3229
Spine1  7.96088 -14.3471 15.5737
HEad  10.7397 18.2914 -7.57209
LeftShoulder1  9.10108 -16.2275 -39.8736
LeftArm  39.8081 -37.7962 -63.837
LeftForeArm  -3.69456 -23.6336 -5.24223
LeftHand  -0.25398 0.0180481 5.50724
RightShoulder  4.07078 7.79386 30.0701
RightArm  -15.0174 -22.8283 25.9921
RightForeArm  -21.7514 73.207 47.1006
RightHand  -1.48535 2.61723 -21.5741
LeftUpLeg  5.00978 11.6678 -8.89021
LeftLeg  15.0917 20.1887 -0.368047
LeftFoot  -14.252 0.279314 7.60928
LeftToes  1.06248e-005 4.65856e-005 -8.18499e-006
139
root  9.00234 39.1266 -13.9408 4.5125 68.3193 12.4533
RightUpLeg  -22.0786 -5.91978 -1.33632
RightLeg  23.9435 -3.66152 -2.2096
RightFoot  1.00232 -0.746398 6.94984
RightToes  0.00048216 0.542163 -0.142577
Spine  19.0482 -7.50595 -14.3856
Spine1  8.38867 -14.5953 16.0183
HEad  11.1996 17.4594 -7.09061
LeftShoulder1  9.08995 -16.2557 -39.7574
LeftArm  38.8497 -37.8321 -63.4364
LeftForeArm  -3.59784 -23.7055 -5.2484
LeftHand  -0.25398 0.0180481 5.50724
RightShoulder  3.99838 7.60603 30.0264
RightArm  -15.395 -22.7601 26.7124
RightForeArm  -19.2036 73.7397 49.2201
RightHand  -1.54878 2.77779 -22.0443
LeftUpLeg  7.54843 10.0586 -10.2507
LeftLeg  15.2623 21.6872 -0.465404
LeftFoot  -16.7619 0.451069 7.36786
LeftToes  1.06248e-005 4.65856e-005 -8.18499e-006
140
root  10.631 38.8136 -13.8558 6.464 68.9716 14.3992
RightUpLeg  -21.0157 -11.3863 0.866263
RightLeg  12.5114 -4.18905 0.387457
RightFoot  -0.862146 -0.684304 7.38317
RightToes  0.00048216 0.542163 -0.142577
Spine  17.8423 -7.68151 -15.2456
Spine1  9.20389 -14.9506 16.3691
HEad  11.6082 16.4375 -6.63481
LeftShoulder1  9.10567 -16.2705 -39.7999
LeftArm  38.2116 -37.9155 -63.0819
LeftForeArm  -3.79921 -23.6021 -5.24285
LeftHand  -0.25398 0.0180481 5.50724
RightShoulder  3.91146 7.40316 29.8965
RightArm  -15.8038 -23.025 27.6908
RightForeArm  -16.0365 74.3021 51.7079
RightHand  -1.59806 2.89343 -22.4194
LeftUpLeg  10.2506 8.79052 -11.6946
LeftLeg  14.8539 22.5187 -0.666676
LeftFoot  -18.6289 0.57382 7.24284
LeftToes  1.06248e-005 4.65856e-005 -8.18499e-006
141
root  12.3019 38.4614 -13.7596 8.52591 69.6985 16.3019
RightUpLeg  -19.2132 -6.29113 -1.33423
RightLeg  1.82272 -14.5295 5.23878
RightFoot  -1.87552 -0.671075 7.93888
RightToes  0.00048216 0.542163 -0.142577
Spine  16.7078 -7.88952 -15.8653
Spine1  9.70825 -15.2671 16.7739
HEad  12.0323 15.2462 -6.23796
LeftShoulder1  9.1891 -16.3441 -40.036
LeftArm  37.7452 -37.8282 -62.6966
LeftForeArm  -3.93684 -23.6164 -5.25363
LeftHand  -0.25398 0.0180481 5.50724
RightShoulder  3.83568 7.21496 29.8178
RightArm  -16.409 -23.5967 28.5528
RightForeArm  -12.4311 74.8627 54.5164
RightHand  -1.62818 2.97437 -22.6168
LeftUpLeg  12.8822 8.47608 -12.7907
LeftLeg  14.6432 22.3019 -0.828947
LeftFoot  -20.5925 0.646268 6.47128
LeftToes  1.06248e-005 4.65856e-005 -8.18499e-006
142
root  14.0482 38.0264 -13.6642 10.226 70.0776 17.8129
RightUpLeg  -18.5739 -5.137 -1.21732
RightLeg  -4.50357 -18.7487 7.88251
RightFoot  -3.15954 -0.643038 8.6875
RightToes  0.00048216 0.542163 -0.142577
Spine  15.8866 -7.99998 -16.1158
Spine1  9.71078 -15.3297 17.1214
HEad  12.2704 14.1202 -5.99349
LeftShoulder1  9.27424 -16.4272 -40.2572
LeftArm  37.0546 -37.5248 -62.3423
LeftForeArm  -3.5969 -23.9986 -5.30926
LeftHand  -0.25398 0.0180481 5.50724
RightShoulder  3.80828 7.11267 29.9056
RightArm  -17.4261 -24.2051 29.1618
RightForeArm  -8.47263 75.3932 57.5608
RightHand  -1.63492 3.02689 -22.5722
LeftUpLeg  15.3685 9.70325 -13.2595
LeftLeg  15.2733 20.6819 -0.795269
LeftFoot  -22.4599 0.630427 5.07958
LeftToes  1.06248e-005 4.65856e-005 -8.18499e-006
143
root  15.8545 37.6156 -13.5855 10.7978 70.3748 18.041
RightUpLeg  -19.1965 -4.77058 -0.505838
RightLeg  -4.02365 -21.1722 8.15057
RightFoot  -4.60162 -0.559974 8.87489
RightToes  0.00048216 0.542163 -0.142577
Spine  15.2723 -8.1972 -15.637
Spine1  9.77866 -15.4988 17.4102
HEad  12.1203 13.2939 -6.02774
LeftShoulder1  9.29699 -16.4169 -40.3881
LeftArm  35.9795 -37.153 -62.1354
LeftForeArm  -2.79993 -24.6512 -5.41608
LeftHand  -0.25398 0.0180481 5.50724
RightShoulder  3.79382 7.04952 29.9844
RightArm  -18.6101 -24.526 29.5623
RightForeArm  -4.20811 75.8845 60.836
RightHand  -1.6097 2.98882 -22.3323
LeftUpLeg  17.718 12.6207 -12.6401
LeftLeg  16.404 17.0944 -0.496334
LeftFoot  -23.1653 0.531655 3.78248
LeftToes  1.06248e-005 4.65856e-005 -8.18499e-006
144
root  17.7238 37.3368 -13.5422 9.27675 71.3277 15.768
RightUpLeg  -20.6056 -5.37162 0.754498
RightLeg  0.938345 -22.3577 6.78554
RightFoot  -3.56657 -0.440516 6.26368
RightToes  0.00048216 0.542163 -0.142577
Spine  14.7215 -8.80825 -13.7659
Spine1  10.0575 -16.147 17.7991
HEad  11.7013 12.5923 -6.48915
LeftShoulder1  9.35142 -16.3826 -40.722
LeftArm  34.8651 -36.7245 -62.0712
LeftForeArm  -1.94654 -25.2989 -5.5191
LeftHand  -0.25398 0.0180481 5.50724
RightShoulder  3.71785 6.89484 29.7838
RightArm  -19.4013 -24.684 29.4872
RightForeArm  0.503952 76.3601 64.6304
RightHand  -1.5555 2.8295 -22.0043
LeftUpLeg  20.1065 17.7916 -9.76474
LeftLeg  17.7667 10.508 0.146306
LeftFoot  -22.8596 0.344386 2.07992
LeftToes  1.06248e-005 4.65856e-005 -8.18499e-006
145
root  19.6557 37.1713 -13.5575 4.52942 72.5074 10.0794
RightUpLeg  -23.2633 -10.0042 4.43853
RightLeg  8.72006 -18.5567 3.38754
RightFoot  0.351414 0.029186 -0.0370839
RightToes  0.00048216 0.542163 -0.142577
Spine  14.6497 -9.61671 -10.0389
Spine1  9.81531 -16.7249 18.2196
HEad  11.266 11.713 -7.41992
LeftShoulder1  9.55156 -16.4624 -41.4858
LeftArm  34.0333 -36.1303 -62.0164
LeftForeArm  -1.16486 -25.8531 -5.60554
LeftHand  -0.25398 0.0180481 5.50724
RightShoulder  3.60659 6.7036 29.3563
RightArm  -19.6105 -25.0637 28.536
RightForeArm  5.58001 76.7885 68.8376
RightHand  -1.46901 2.55551 -21.501
LeftUpLeg  22.4245 24.0162 -4.50209
LeftLeg  20.1303 2.49172 0.699551
LeftFoot  -21.5973 0.00829363 -1.38213
LeftToes  1.06248e-005 4.65856e-005 -8.18499e-006
146
root  21.5581 37.0656 -13.6225 -1.93909 72.3828 2.91602
RightUpLeg  -26.6359 -16.8948 10.363
RightLeg  16.4175 -9.98217 -0.958635
RightFoot  4.19787 1.10487 -7.95864
RightToes  0.00048216 0.542163 -0.142577
Spine  15.6918 -9.90156 -5.40833
Spine1  8.74058 -16.3898 18.3017
HEad  10.7697 10.7425 -8.4696
LeftShoulder1  9.79674 -16.596 -42.3278
LeftArm  33.4722 -35.5353 -61.87
LeftForeArm  -0.316882 -26.4831 -5.70695
LeftHand  -0.25398 0.0180481 5.50724
RightShoulder  3.58125 6.72597 29.0246
RightArm  -19.6429 -25.5997 27.0461
RightForeArm  10.0211 77.0734 72.2012
RightHand  -1.35762 2.25757 -20.658
LeftUpLeg  22.5178 26.0574 -0.213126
LeftLeg  25.762 -0.609063 0.0993179
LeftFoot  -16.6827 -0.166003 -6.16216
LeftToes  1.06248e-005 4.65856e-005 -8.18499e-006
147
root  23.3171 36.9504 -13.6783 -6.00259 70.9536 -1.46014
RightUpLeg  -28.5224 -16.5084 12.6416
RightLeg  22.8735 -7.76295 -4.13312
RightFoot  4.49809 1.9125 -13.5365
RightToes  0.00048216 0.542163 -0.142577
Spine  17.7316 -9.60936 -1.72888
Spine1  7.63579 -15.3239 17.9732
HEad  9.8999 9.89799 -9.01135
LeftShoulder1  9.88741 -16.6323 -42.6638
LeftArm  32.946 -35.4085 -61.59
LeftForeArm  0.650858 -27.3679 -5.86302
LeftHand  -0.25398 0.0180481 5.50724
RightShoulder  3.67453 7.02641 28.9092
RightArm  -19.9567 -25.7692 26.1349
RightForeArm  12.6477 77.184 73.4558
RightHand  -1.28137 2.18772 -19.7097
LeftUpLeg  19.06 27.1241 2.62316
LeftLeg  35.9423 -1.88267 -1.10504
LeftFoot  -5.6196 0.517589 -9.72669
LeftToes  1.06248e-005 4.65856e-005 -8.18499e-006
